# xmcd CD database file generated by Grip 2.92
# 
# Track frame offsets:
#       150
#       15917
#       32878
#       54841
#       71558
#       87613
#       103033
#       120704
# 
# Disc length: 1927 seconds
# 
# Revision: 3
# Processed by: cddbd v1.4PL0 Copyright (c) Steve Scherf et al.
# Submitted via: Grip 2.92
# 
DISCID=61078508
DTITLE=Soulcasters - Time To Shine
DYEAR=1900
DGENRE=
TTITLE0=Long Way From Saying Goodbye
TTITLE1=Let Your Love Rain Down
TTITLE2=The Promise
TTITLE3=This Heart of Mine
TTITLE4=Time To Shine
TTITLE5=Can't Take The Memories
TTITLE6=Broken Hearted Fool
TTITLE7=Can't Go Back Home
EXTD=
EXTT0=
EXTT1=
EXTT2=
EXTT3=
EXTT4=
EXTT5=
EXTT6=
EXTT7=
PLAYORDER=
